<svg width="2214" height="396" viewBox="0 0 2214 396" fill="none" xmlns="http://www.w3.org/2000/svg">
<rect width="2214" height="396" fill="white"/>
<path d="M342.093 52H310.084V84H276.074V116H246.066V150H276.074V180H310.084V150H342.093V116H374.103V84H406.112V116H440.122V278H406.112V308H374.103V278H342.093V244H310.084V212H276.074V244H246.066V278H276.074V308H310.084V340H342.093V374H184.048V340H118.028V308H86.0192V244H54.0099V212H20V180H54.0099V150H86.0192V84H118.028V52H184.048V20H342.093V52Z" fill="black"/>
<path d="M799.209 95.8555H666.516V162.182H766.035V195.346H666.516V328H633.342V62.6914H799.209V95.8555Z" fill="black"/>
<path d="M998.378 95.8555H898.857V195.346H998.378V261.674H965.204V228.51H898.857V328H865.685V62.6914H998.378V95.8555Z" fill="black"/>
<path d="M1031.55 328H998.378V261.674H1031.55V328Z" fill="black"/>
<path d="M1263.89 95.8555H1131.2V162.182H1230.72V195.346H1131.2V294.836H1263.89V328H1098.03V62.6914H1263.89V95.8555Z" fill="black"/>
<path d="M1496.24 95.8555H1363.54V162.182H1463.06V195.346H1363.54V294.836H1496.24V328H1330.37V62.6914H1496.24V95.8555Z" fill="black"/>
<path d="M1696.14 95.8555H1596.62V195.346H1696.14V228.51H1596.62V328H1563.45V62.6914H1696.14V95.8555Z" fill="black"/>
<path d="M1828.96 195.346H1928.48V129.02H1961.66V328H1928.48V228.51H1828.96V328H1795.79V129.02H1828.96V195.346Z" fill="black"/>
<path d="M2127.65 328H2094.48V195.346H2127.65V328Z" fill="black"/>
<path d="M1031.55 195.346H998.378V95.8555H1031.55V195.346Z" fill="black"/>
<path d="M1729.31 195.346H1696.14V95.8555H1729.31V195.346Z" fill="black"/>
<path d="M2094.48 195.346H2061.31V162.182H2094.48V195.346Z" fill="black"/>
<path d="M2160.83 195.346H2127.65V162.182H2160.83V195.346Z" fill="black"/>
<path d="M2061.31 162.182H2028.13V62.6914H2061.31V162.182Z" fill="black"/>
<path d="M2194 162.182H2160.83V62.6914H2194V162.182Z" fill="black"/>
<path d="M1862.14 129.02H1828.96V95.8555H1862.14V129.02Z" fill="black"/>
<path d="M1928.48 129.02H1895.31V95.8555H1928.48V129.02Z" fill="black"/>
<path d="M1895.31 95.8555H1862.14V62.6914H1895.31V95.8555Z" fill="black"/>
</svg>
