<svg width="460" height="396" viewBox="0 0 460 396" fill="none" xmlns="http://www.w3.org/2000/svg">
<rect width="460" height="396" fill="white"/>
<path d="M342.093 52H310.084V84H276.074V116H246.066V150H276.074V180H310.084V150H342.093V116H374.103V84H406.112V116H440.122V278H406.112V308H374.103V278H342.093V244H310.084V212H276.074V244H246.066V278H276.074V308H310.084V340H342.093V374H184.048V340H118.028V308H86.0192V244H54.0099V212H20V180H54.0099V150H86.0192V84H118.028V52H184.048V20H342.093V52Z" fill="black"/>
</svg>
